<svg width="21" height="24" viewBox="0 0 21 24" fill="none" xmlns="http://www.w3.org/2000/svg">
<g clip-path="url(#clip0_156_11541)">
<path d="M17.2826 16.0001C15.3 16.0001 13.6304 17.6696 13.6304 19.6522C13.6304 21.6349 15.3 23.3044 17.2826 23.3044C19.2652 23.3044 20.9347 21.6349 20.9347 19.6522C20.9347 17.6696 19.2652 16.0001 17.2826 16.0001ZM11.7626 21.2175H2.15214C1.59865 21.2175 1.06782 20.9976 0.676441 20.6062C0.285061 20.2148 0.0651855 19.684 0.0651855 19.1305V4.52181C0.0651855 3.36355 0.993881 2.43486 2.15214 2.43486H3.19562V0.3479H5.28258V2.43486H13.6304V0.3479H15.7174V2.43486H16.7608C17.3143 2.43486 17.8452 2.65473 18.2365 3.04611C18.6279 3.43749 18.8478 3.96832 18.8478 4.52181V14.1322C18.3261 13.9966 17.8043 13.9131 17.2826 13.9131C17.1052 13.9131 16.9382 13.9131 16.7608 13.9444V7.65225H2.15214V19.1305H11.5747C11.5434 19.3079 11.5434 19.4749 11.5434 19.6522C11.5434 20.174 11.6269 20.6957 11.7626 21.2175Z" fill="#B1B1B1"/>
</g>
<defs>
<clipPath id="clip0_156_11541">
<rect width="20.8696" height="24" fill="white" transform="translate(0.0651855)"/>
</clipPath>
</defs>
</svg>
