<svg width="23" height="24" viewBox="0 0 23 24" fill="none" xmlns="http://www.w3.org/2000/svg">
<g clip-path="url(#clip0_156_11552)">
<path d="M16.4067 4.53507H20.0867C20.412 4.53507 20.724 4.6626 20.9541 4.88962C21.1841 5.11664 21.3134 5.42454 21.3134 5.74559V19.0614C21.3134 19.7035 21.0549 20.3193 20.5948 20.7733C20.1347 21.2274 19.5107 21.4824 18.86 21.4824M18.86 21.4824C18.2094 21.4824 17.5854 21.2274 17.1253 20.7733C16.6652 20.3193 16.4067 19.7035 16.4067 19.0614V3.32454C16.4067 3.00349 16.2775 2.69559 16.0474 2.46857C15.8174 2.24155 15.5054 2.11401 15.18 2.11401H2.91337C2.58804 2.11401 2.27603 2.24155 2.04599 2.46857C1.81594 2.69559 1.68671 3.00349 1.68671 3.32454V17.8509C1.68671 18.814 2.07442 19.7377 2.76455 20.4188C3.45469 21.0998 4.39071 21.4824 5.36671 21.4824H18.86ZM6.59337 6.95612H11.5M6.59337 11.7982H11.5M6.59337 16.6403H11.5" stroke="#B1B1B1" stroke-width="2" stroke-linecap="round" stroke-linejoin="round"/>
</g>
<defs>
<clipPath id="clip0_156_11552">
<rect width="22.08" height="23" fill="white" transform="translate(0.460022 0.5)"/>
</clipPath>
</defs>
</svg>
