<svg width="24" height="24" viewBox="0 0 24 24" fill="none" xmlns="http://www.w3.org/2000/svg">
<path d="M12.9583 17.7501H11.0416V10.0834L7.68746 13.4376L6.32663 12.0767L12 6.40341L17.6733 12.0767L16.3125 13.4376L12.9583 10.0834V17.7501ZM12 2.41675C13.2585 2.41675 14.5046 2.66463 15.6673 3.14624C16.83 3.62784 17.8865 4.33375 18.7764 5.22364C19.6663 6.11354 20.3722 7.16999 20.8538 8.3327C21.3354 9.4954 21.5833 10.7416 21.5833 12.0001C21.5833 14.5417 20.5736 16.9793 18.7764 18.7765C16.9792 20.5737 14.5416 21.5834 12 21.5834C10.7415 21.5834 9.49528 21.3355 8.33258 20.8539C7.16987 20.3723 6.11341 19.6664 5.22352 18.7765C3.4263 16.9793 2.41663 14.5417 2.41663 12.0001C2.41663 9.45842 3.4263 7.02087 5.22352 5.22364C7.02074 3.42642 9.4583 2.41675 12 2.41675ZM12 4.33341C9.96663 4.33341 8.01659 5.14115 6.57881 6.57893C5.14103 8.01671 4.33329 9.96676 4.33329 12.0001C4.33329 14.0334 5.14103 15.9835 6.57881 17.4212C8.01659 18.859 9.96663 19.6667 12 19.6667C14.0333 19.6667 15.9833 18.859 17.4211 17.4212C18.8589 15.9835 19.6666 14.0334 19.6666 12.0001C19.6666 9.96676 18.8589 8.01671 17.4211 6.57893C15.9833 5.14115 14.0333 4.33341 12 4.33341Z" fill="#B1B1B1"/>
</svg>
